<svg id="Calque_1" data-name="Calque 1" xmlns="http://www.w3.org/2000/svg" viewBox="0 0 349.32 511.42"><defs><style>.cls-1{fill:#16406d;}</style></defs><path class="cls-1" d="M284.63,30a41,41,0,0,0-25.15,3.51,26.27,26.27,0,0,0-31.79,3.07L199.76,62.72V60.44a42.61,42.61,0,0,0-42.61-42.61,25.57,25.57,0,0,0-25.56,25.56v83.47l-20.86,22.62a33.9,33.9,0,0,0-9,23.55,562,562,0,0,0,6.56,88.74,8.55,8.55,0,0,0,.8,1.92l-13.9,39.12a33.69,33.69,0,0,0,12.9,39.49l4.87,3.31a34.16,34.16,0,0,0,12.91,39.2l138,94.59a8.5,8.5,0,0,1,3.71,7A25.57,25.57,0,0,0,293.1,512H416.94a25.41,25.41,0,0,0,20-9.62,25.67,25.67,0,0,0,4.84-22l-12.44-46a202.37,202.37,0,0,1-3.82-61.26c7-89.06-52.68-153.39-67.83-164.57-27.85-20.53-48.63-41.94-57-58.74-12.57-25.2-4.1-42.44,4.09-59.11,6.87-14,14-28.44,3.89-43.6A37.49,37.49,0,0,0,284.63,30ZM157.15,34.88a25.56,25.56,0,0,1,25.57,25.56V78.67l-34.09,31.91V43.39a8.52,8.52,0,0,1,8.52-8.51ZM118.76,172.8a16.9,16.9,0,0,1,4.5-11.76l22.49-24.44a5,5,0,0,0,.58-.55l50-46.82A8.68,8.68,0,0,0,197.69,88l41.86-39.2a8.61,8.61,0,0,1,12,0l.58-.58a8.45,8.45,0,0,0,.66.68l-.54.69a25.56,25.56,0,0,1-.57,35.27L218.15,117,171,159.53a16.57,16.57,0,0,0-4.48,12.1,42.6,42.6,0,0,0-34.61,27.89l-10.7,30.08C119.46,208.65,118.92,184.94,118.76,172.8Zm64.69-1.58,24.63-22.16a136.7,136.7,0,0,0,.81,22.16ZM111.2,308.63l36.74-103.4a25.67,25.67,0,0,1,24.26-17h73.13a8.57,8.57,0,0,1,4.93,1.59l44.11,31.25a6.52,6.52,0,0,1,2.8,5.25,6.67,6.67,0,0,1-.9,3.41,18,18,0,0,1-1,1.47l-13.84-9.9a42.3,42.3,0,0,0-24.71-7.94H189.6a42.6,42.6,0,0,0-40.11,28.44L118.81,329l-1.1-.75A16.68,16.68,0,0,1,111.2,308.63ZM289.47,83.28c-8.61,17.5-20.39,41.48-4,74.24,13.06,26.18,44.54,51.87,62.14,64.82,11.32,8.33,67.39,67.81,60.95,149.52a220,220,0,0,0,4.26,66.73l12.44,46A8.53,8.53,0,0,1,416.94,495H293.05a8.53,8.53,0,0,1-8.52-8.53,25.55,25.55,0,0,0-11.07-21.1l-138-94.58a17.1,17.1,0,0,1-6.43-19.76l36.49-103.62a25.58,25.58,0,0,1,24-17h67.06a25.33,25.33,0,0,1,14.82,4.76l39.34,28.16a6.62,6.62,0,0,1,1.79,8.74,25.43,25.43,0,0,1-36,8.11l-17-11.37a25.4,25.4,0,0,0-14.18-4.32H219.16a25.35,25.35,0,0,0-24.31,17.67c-.5,1.59-1.22,3.57-2,5.79-6.14,17-20.46,56.64,12,69.67a8.52,8.52,0,1,0,6.34-15.81c-14.29-5.74-11.28-23.37-2.35-48.05.9-2.49,1.71-4.68,2.25-6.46a8.37,8.37,0,0,1,8.06-5.76h26.23a8.36,8.36,0,0,1,4.7,1.43l17,11.38a42.5,42.5,0,0,0,60.09-13.54,23.76,23.76,0,0,0-6.52-31.34l-11.65-8.38c.62-.85,1.3-1.7,1.82-2.55a23.48,23.48,0,0,0-6.63-31.28L260.15,176a25.73,25.73,0,0,0-14.82-4.73H226.06a120.59,120.59,0,0,1,1.26-39.66L263.63,97a42.59,42.59,0,0,0,7.53-49.85,19.74,19.74,0,0,1,23.31,9.46C298.69,63,296.33,69.32,289.47,83.28Z" transform="translate(-93.14 -0.58)"/><path class="cls-1" d="M253.24,358.69a8.53,8.53,0,0,0-5.4,16.19c19.67,6.59,70.73,30.25,70.73,60.09a8.52,8.52,0,0,0,17,0C335.58,386.73,256.61,359.79,253.24,358.69Z" transform="translate(-93.14 -0.58)"/><path class="cls-1" d="M310.81,327.5a8.52,8.52,0,1,0-13.57,10.32c13,17,34.63,37.44,63.83,37.44a8.52,8.52,0,0,0,0-17C338.85,358.22,321.5,341.51,310.81,327.5Z" transform="translate(-93.14 -0.58)"/><path class="cls-1" d="M316.63,3.44,308.51,12A8.52,8.52,0,1,0,320.85,23.7L329,15.18A8.52,8.52,0,1,0,316.63,3.44Z" transform="translate(-93.14 -0.58)"/><path class="cls-1" d="M357,41.69a8.53,8.53,0,0,0-10.51-5.91L335.38,38.9a8.52,8.52,0,0,0,2.31,16.75,8.71,8.71,0,0,0,2.32-.32l11.08-3.12A8.52,8.52,0,0,0,357,41.69Z" transform="translate(-93.14 -0.58)"/><path class="cls-1" d="M333.23,76.35a8.52,8.52,0,1,0-4.61,16.41l11.08,3.12a8.71,8.71,0,0,0,2.32.32,8.52,8.52,0,0,0,2.29-16.73Z" transform="translate(-93.14 -0.58)"/></svg>